<?xml version="1.0" standalone="no"?>
<!DOCTYPE svg PUBLIC "-//W3C//DTD SVG 20010904//EN"
 "http://www.w3.org/TR/2001/REC-SVG-20010904/DTD/svg10.dtd">
<svg version="1.0" xmlns="http://www.w3.org/2000/svg"
 width="150.000000pt" height="150.000000pt" viewBox="0 0 150.000000 150.000000"
 preserveAspectRatio="xMidYMid meet">
<metadata>
Created by potrace 1.14, written by Peter Selinger 2001-2017
</metadata>
<g transform="translate(0.000000,150.000000) scale(0.100000,-0.100000)"
fill="#000000" stroke="none">
<path d="M643 1489 c-28 -3 -69 -15 -90 -25 l-38 -19 -5 -149 c-4 -122 -8
-150 -20 -152 -44 -8 -61 -14 -99 -33 -78 -40 -89 -100 -27 -143 17 -12 32
-22 33 -22 1 -1 -9 -32 -22 -70 -26 -79 -27 -163 0 -237 8 -24 16 -46 17 -49
1 -3 -2 -17 -6 -32 -10 -36 -2 -67 26 -99 22 -23 91 -63 113 -64 6 0 10 -60
11 -150 2 -160 15 -235 40 -235 16 0 60 86 70 138 7 37 4 36 40 18 25 -14 29
-13 43 3 15 17 17 17 35 -1 18 -16 22 -17 42 -3 27 17 29 14 50 -57 19 -61 41
-98 60 -98 23 0 34 72 37 226 l2 147 55 29 c78 40 102 72 97 127 -3 25 1 58 9
76 11 28 23 89 29 150 2 24 -15 107 -25 120 -4 6 -10 22 -14 37 -5 23 -1 30
29 48 19 12 36 28 36 36 1 8 2 20 3 27 4 23 -15 46 -57 71 -39 22 -102 42
-119 38 -5 -1 -8 17 -9 40 0 24 -1 92 -2 152 l-2 109 -39 21 c-22 11 -49 21
-60 23 -61 7 -198 8 -243 2z"/>
</g>
</svg>
